<svg width="134.5" height="60.5" viewBox="22.5 68 134.5 60.5" version="1.1" id="svg1" xml:space="preserve" xmlns="http://www.w3.org/2000/svg" xmlns:svg="http://www.w3.org/2000/svg"><defs id="defs1"></defs><g id="layer1" transform="translate(-16.289351,60.765996)"><g id="g67" transform="translate(-172.48745,-123.45358)" style="fill:currentColor;fill-opacity:1"><path style="fill:currentColor;fill-opacity:1" d="m 317.36969,159.52659 c -3.18067,-1.62185 -3.51673,-4.93523 -1.297,-12.78764 2.36533,-8.36748 4.99172,-11.41278 5.85671,-12.13678 0.86499,-0.724 2.51678,-1.98867 4.48601,-2.01605 2.76598,-0.009 6.79027,-0.0205 6.79027,-0.0205 h 10.92875 l -1.50206,5.59461 -7.34702,0.0169 c -7.36195,0.0169 -7.5272,-0.25513 -9.13855,0.75069 -1.60444,1.0015 -2.29714,4.21791 -2.46395,4.88183 l 15.53055,0.0229 -1.39627,5.29505 -15.56906,0.0465 c 0,0 -0.78704,3.0297 -0.81328,3.67208 0,1.75715 0.63521,1.69703 9.0254,1.67673 l 7.77959,-0.0188 -1.50079,5.59 -8.96982,0.05 c -8.05188,0.0449 -9.33961,-0.0769 -10.39948,-0.61737 z" id="path59"></path><path style="fill:currentColor;fill-opacity:1" d="m 289.79597,132.56217 18.03257,0.006 c 1.55695,-0.0277 3.37202,0.9939 4.416,2.27503 1.38795,1.70324 2.03612,4.18156 1.73746,6.3583 -0.34187,2.49159 -2.16889,5.13914 -3.87556,6.47333 -1.70668,1.3342 -5.26899,2.10822 -5.26899,2.10822 l 5.789,10.31116 -6.83005,-0.0248 c 0,0 -2.0493,-3.98177 -4.50457,-8.51689 -1.3504,-2.49431 -2.80602,-4.55476 -2.46892,-5.297 0.3371,-0.74224 1.14491,-0.22405 3.31271,-0.2298 4.63369,-0.0123 7.33121,-1.68959 7.33121,-4.55851 0,-2.53618 -0.21434,-3.19172 -6.69572,-3.31634 l -5.49135,0.0236 -5.85767,21.97002 -7.00063,-0.0465 z" id="path60"></path><path style="fill:currentColor;fill-opacity:1" d="m 274.31083,132.60166 c 3.01106,0.16088 4.40655,0.68274 6.46539,3.13189 3.72567,4.43198 2.87806,13.05976 -2.76633,18.97619 -2.40147,2.51721 -4.77419,3.78482 -8.55693,4.75228 -2.24854,0.57508 -5.27399,0.68055 -10.57328,0.68247 -5.07227,0.002 -7.86985,-0.0209 -7.86985,-0.0209 l 7.34187,-27.53402 z m 1.82281,8.28822 c -1.50498,-2.43845 -2.86974,-2.87475 -8.13744,-2.77146 -1.62848,0.0319 -4.63852,0.1132 -4.63852,0.1132 l -4.35158,16.30586 c 0,0 3.92669,0.0423 4.89991,0.0386 3.17142,-0.028 5.07734,-0.30132 6.83036,-1.3575 2.09042,-0.85375 5.05342,-3.83363 5.60038,-6.24418 0.55714,-2.45538 0.80301,-4.45435 -0.20311,-6.08452 z" id="path61"></path><path style="fill:currentColor;fill-opacity:1" d="m 246.86406,132.57351 6.60853,-0.0286 -7.36022,27.55189 -6.59858,-0.0239 z" id="path62"></path><path style="fill:currentColor;fill-opacity:1" d="m 309.2752,189.42462 1.35307,-4.94759 7.06849,0.009 c 7.71481,0.01 8.33389,-1.61536 8.62909,-2.3605 0.25615,-0.64658 0.0555,-1.69141 -1.30414,-2.25776 -2.70451,-1.12659 -6.7759,-0.99156 -9.51744,-2.94615 -0.47987,-0.34212 -1.11881,-1.07491 -1.44426,-1.7607 -0.28421,-0.59889 -0.41866,-1.28696 -0.39352,-1.94939 0.0477,-1.25784 0.59127,-2.73474 1.02558,-3.63429 0.43431,-0.89955 0.91614,-1.51945 1.19806,-1.81194 3.19969,-3.31956 7.88924,-2.93364 12.26192,-2.96029 4.51919,-0.0139 7.32109,9.2e-4 7.32109,9.2e-4 l -1.28075,4.90151 -6.42575,-0.0153 c 0,0 -5.7854,-0.10322 -6.47449,0.0424 -1.01283,0.21352 -1.65192,0.9518 -1.83804,1.66482 -0.19816,0.7591 0.109,1.49392 0.80092,1.93518 0.43656,0.27841 2.14312,0.76998 3.79236,1.09238 2.83639,0.55448 2.93245,0.58291 4.26167,1.2097 1.66008,0.78282 2.82449,3.15833 2.89803,5.11725 0.0776,2.06559 -0.88716,4.3051 -2.64267,5.60984 -1.75551,1.30474 -4.28092,3.02841 -11.29114,3.06187 z" id="path63"></path><path style="fill:currentColor;fill-opacity:1" d="m 289.19756,164.79327 c 4.62699,-0.003 9.25399,0.003 13.88098,0.001 2.92791,-0.001 4.2141,0.59722 5.48838,2.08208 1.0546,1.22887 1.17839,3.14011 1.01388,4.75108 -0.11534,1.12946 -0.71315,2.19216 -1.36947,3.11857 -0.58211,0.82165 -2.20659,2.06315 -2.20659,2.06315 l 0.99563,1.03937 c 2.55032,2.66236 0.0236,8.50137 -4.56872,10.55809 -1.74653,0.7822 -2.48523,0.83259 -10.9541,0.95343 -8.54981,0.12199 -8.89326,0.0523 -8.89326,0.0523 z m 10.33177,19.35021 c 1.61475,-0.37292 2.99861,-1.76675 2.99861,-3.0202 0,-1.5271 -0.73583,-2.00144 -5.75283,-2.10572 l -5.06519,6.3e-4 -1.4778,5.49199 c 0,0 1.70689,-0.0271 4.09374,-0.0324 2.0858,-0.005 4.42736,-0.15506 5.20347,-0.33431 z m 4.06884,-13.82969 c -0.721,-0.58383 -1.41379,-0.66234 -5.16156,-0.63806 l -4.17315,0.027 c -0.54259,1.63556 -0.99448,3.2771 -1.35767,4.96027 l 4.31555,0.0259 c 2.89781,0.0174 4.71052,-0.7066 5.30123,-0.98901 0.59071,-0.28241 1.08676,-0.49747 1.58572,-1.22165 0.31233,-0.45332 0.25065,-1.54884 -0.51012,-2.16488 z" id="path64"></path><path style="fill:currentColor;fill-opacity:1" d="m 255.85015,184.5744 c 4.52394,-7.23137 9.91202,-15.09582 11.72057,-17.10736 1.833,-2.03874 3.22657,-2.73639 5.46598,-2.73639 2.14639,0 3.25319,0.48438 3.88102,1.69846 0.70206,1.35765 2.54393,12.64566 3.50762,21.49668 l 0.16324,1.49931 h -2.76327 l -4.14443,-0.0491 c 0,0 0.98175,-1.40272 0.86449,-3.97285 l -6.61769,2.83362 -0.29288,1.17263 -2.05047,0.01 0.41842,-1.58357 -4.572,-2.14106 c -1.1885,2.10903 -1.23244,3.72238 -1.23244,3.72238 l -4.12012,0.008 h -3.26264 z m 18.4506,-1.22276 -0.32418,-2.00669 -5.84645,2.39752 -4.29792,-1.91673 -0.988,1.57538 4.75099,2.22629 z m -0.68192,-3.97376 -0.33426,-1.73303 -4.10309,2.11275 -3.18171,-1.34294 -0.95573,1.52999 3.65789,1.66636 z m -0.7342,-3.24843 -0.43121,-1.3882 -2.22548,1.14622 -1.95794,-0.70122 -1.09697,1.55786 2.54654,1.03582 z m -0.86386,-2.53995 c 0,0 -0.49745,-0.31156 -1.06133,-0.43604 -0.87487,0.28401 -1.84269,0.96119 -1.84269,0.96119 l 1.50004,0.30599 z" id="path65"></path><path style="fill:currentColor;fill-opacity:1" d="m 232.71444,186.55835 c 0.001,-0.5095 0.14495,-1.25643 0.42792,-2.63109 0.3131,-1.521 5.1255,-19.16225 5.1255,-19.16225 l 6.53951,0.0807 c 0,0 -3.02869,11.32758 -4.57853,17.00747 -0.19768,0.72447 -0.44455,1.59208 -0.13371,2.04347 0.31671,0.45991 3.89046,0.59015 3.89046,0.59015 l 7.35586,-0.0205 -1.3803,4.99247 -6.83093,0.002 c -3.90552,0.001 -7.61598,-0.24805 -8.24557,-0.42985 -1.80858,-0.52221 -2.17094,-2.17587 -2.17021,-2.47255 z" id="path66"></path><path style="fill:currentColor;fill-opacity:1;stroke-width:1.11913" d="m 212.92428,160.11401 1.51646,-5.58862 7.922,0.01 c 8.64637,0.0112 9.34019,-1.74553 9.67105,-2.57823 0.28708,-0.72256 0.0622,-1.89017 -1.46161,-2.52307 -3.03109,-1.25896 -7.59408,-1.10806 -10.66667,-3.29234 -0.53781,-0.38233 -1.25391,-1.20122 -1.61864,-1.96761 -0.31855,-0.66926 -0.46921,-1.4381 -0.44105,-2.17845 0.0536,-1.40593 0.66267,-3.0561 1.14942,-4.06135 0.48676,-1.00526 1.02677,-1.698 1.34272,-2.02486 3.58606,-3.70964 8.84186,-3.27837 13.74254,-3.30815 5.06488,-0.0156 8.20511,9.9e-4 8.20511,9.9e-4 l -1.48313,5.5729 -7.20165,-0.0172 c 0,0 -6.72255,-0.0438 -7.49485,0.11898 -1.13513,0.23861 -1.56509,0.89663 -1.7737,1.69344 -0.22207,0.84829 0.12218,1.66946 0.89765,2.16257 0.48926,0.31113 2.40189,0.86046 4.25028,1.22074 3.17888,0.61964 3.28654,0.65142 4.77627,1.35185 1.86052,0.87481 3.16557,3.52794 3.24794,5.71859 0.0869,2.30951 -0.99426,4.81097 -2.96174,6.26904 -1.9675,1.45805 -4.79785,3.38428 -12.65455,3.42166 z" id="path67"></path></g></g></svg>